# xmcd
#
# Track frame offsets:
# 150
# 19070
# 39357
# 60195
# 77205
# 102297
# 121825
# 139720
# 161584
# 182762
# 202602
# 221590
# 241512
# 261702
# 282652
# 305605
#
# Disc length: 4397 seconds
#
# Revision: 1
# Processed by: cddbd v1.5.2PL0 Copyright (c) Steve Scherf et al.
# Submitted via: Easy CD Ripper 2.39
#
DISCID=d8112b10
DTITLE=벟왜 - 32쥚
DYEAR=1997
DGENRE=Blues
TTITLE0=뷽쮒 - 벟왜
TTITLE1=썻싾뱎숿 - 벟왜
TTITLE2=뼛솺송 - 벟왜
TTITLE3=샃쀿솢 - 벟왜
TTITLE4=Miss You Day&Night - 벟왜
TTITLE5=숀뾌뻪웲쀀밞H - 벟왜
TTITLE6=슀줠송쨸 - 벟왜
TTITLE7=뵫쎮벫 - 벟왜
TTITLE8=S~顫 - 벟왜
TTITLE9=R뼇쀀侖쉌 - 벟왜
TTITLE10=별_뾁筌 - 벟왜
TTITLE11=Everything - 벟왜
TTITLE12=벀쭧윓뵻 - 벟왜
TTITLE13=췒밙 - 벟왜
TTITLE14=엛`뺰뱸 - 벟왜
TTITLE15=챮Z뺥 - 벟왜
EXTD=
EXTT0=
EXTT1=
EXTT2=
EXTT3=
EXTT4=
EXTT5=
EXTT6=
EXTT7=
EXTT8=
EXTT9=
EXTT10=
EXTT11=
EXTT12=
EXTT13=
EXTT14=
EXTT15=
PLAYORDER=
